<?xml version="1.0" standalone="no"?>
<!DOCTYPE svg PUBLIC "-//W3C//DTD SVG 20010904//EN"
 "http://www.w3.org/TR/2001/REC-SVG-20010904/DTD/svg10.dtd">
<svg version="1.0" xmlns="http://www.w3.org/2000/svg"
 width="1186.000000pt" height="1033.000000pt" viewBox="0 0 1186.000000 1033.000000"
 preserveAspectRatio="xMidYMid meet">

<g transform="translate(0.000000,1033.000000) scale(0.100000,-0.100000)"
fill="#000000" stroke="none">
<path d="M5695 9559 c-161 -15 -431 -83 -616 -154 -219 -84 -489 -213 -834
-400 -237 -129 -569 -295 -675 -338 -149 -61 -376 -142 -725 -260 -615 -208
-809 -286 -1037 -413 -411 -229 -663 -516 -824 -936 -49 -130 -111 -390 -130
-545 -9 -76 -21 -167 -26 -203 -15 -96 -22 -2090 -8 -2260 44 -552 136 -895
318 -1187 189 -305 432 -510 827 -698 210 -101 421 -181 825 -315 710 -236
872 -304 1400 -588 204 -110 522 -271 664 -337 131 -60 405 -158 534 -190 349
-87 687 -87 1033 0 319 80 578 193 1174 510 281 149 623 317 735 360 124 48
564 203 705 248 254 82 561 197 754 282 458 202 761 469 950 835 172 334 244
663 259 1196 12 395 7 2003 -7 2154 -62 688 -280 1160 -686 1483 -82 66 -232
161 -355 225 -206 107 -453 203 -961 373 -329 110 -606 210 -759 275 -130 54
-427 204 -665 334 -838 459 -1320 601 -1870 549z m552 -324 c70 -14 190 -47
268 -72 245 -79 394 -148 930 -428 645 -337 797 -402 1360 -586 1051 -342
1385 -536 1638 -956 77 -126 169 -360 187 -473 5 -30 16 -89 25 -130 42 -198
48 -334 52 -1335 4 -819 2 -1000 -12 -1230 -10 -164 -24 -303 -35 -355 -10
-47 -22 -103 -25 -125 -4 -22 -29 -110 -57 -195 -70 -216 -105 -283 -242 -464
-90 -119 -107 -135 -225 -223 -106 -80 -189 -129 -356 -212 -230 -114 -391
-175 -970 -369 -326 -109 -554 -193 -745 -276 -88 -38 -459 -227 -635 -324
-160 -88 -501 -257 -618 -306 -580 -248 -995 -270 -1542 -82 -71 24 -173 63
-225 86 -135 59 -444 212 -586 291 -180 100 -597 312 -694 352 -185 78 -339
134 -645 237 -818 276 -967 337 -1275 524 -100 60 -323 276 -385 371 -121 186
-205 400 -256 655 -59 297 -69 591 -58 1750 8 935 10 987 54 1240 79 458 289
808 616 1026 261 175 461 260 1159 497 728 247 826 289 1435 612 477 253 641
330 875 411 186 64 332 97 510 118 98 12 354 -4 477 -29z"/>
<path d="M5760 9119 c-349 -40 -600 -136 -1258 -481 -733 -383 -771 -399
-1517 -653 -501 -170 -578 -199 -757 -280 -435 -198 -627 -370 -787 -705 -86
-181 -145 -430 -172 -730 -16 -175 -17 -1844 -1 -2185 15 -312 53 -536 125
-735 123 -341 317 -553 671 -736 203 -105 416 -187 903 -350 233 -77 651 -230
769 -280 143 -61 390 -182 679 -334 418 -220 545 -284 660 -332 368 -153 563
-199 845 -199 341 1 606 84 1165 366 165 84 369 189 454 235 396 214 653 320
1286 533 237 79 495 170 575 202 454 179 704 349 863 588 135 202 194 357 242
635 44 254 47 349 47 1462 1 1032 -4 1252 -32 1360 -5 20 -15 71 -21 114 -15
109 -90 332 -151 446 -158 299 -388 488 -818 673 -122 53 -347 134 -615 222
-207 69 -645 225 -765 273 -160 64 -390 176 -775 379 -415 218 -552 284 -735
358 -335 135 -617 184 -880 154z m-2509 -3364 c102 -13 175 -91 186 -200 l5
-52 -50 -7 c-29 -4 -80 -4 -116 0 -63 6 -64 7 -79 46 -13 32 -20 39 -39 36
-12 -2 -28 -14 -35 -28 -16 -32 -17 -190 -1 -225 17 -37 49 -29 71 18 l17 37
114 0 c88 0 115 -3 119 -14 13 -34 -31 -143 -75 -183 -67 -63 -222 -91 -329
-60 -117 35 -184 135 -195 292 -11 158 36 254 152 311 52 25 146 44 189 38 11
-2 41 -6 66 -9z m1620 -6 c88 -22 149 -97 157 -195 l4 -51 -51 -7 c-28 -4 -80
-4 -116 0 -62 6 -66 8 -73 37 -12 46 -37 57 -64 29 -20 -20 -23 -35 -26 -120
-3 -85 -1 -101 16 -121 24 -31 47 -23 66 24 l15 36 118 -3 118 -3 -3 -37 c-10
-130 -113 -217 -268 -226 -112 -6 -182 15 -238 72 -65 65 -89 136 -90 266 -1
95 2 110 26 156 68 130 232 187 409 143z m3316 6 c36 -11 62 -28 91 -59 39
-43 62 -102 47 -125 -4 -7 -48 -11 -112 -11 -95 0 -109 2 -129 21 -15 14 -29
19 -43 14 -47 -15 -20 -34 84 -59 82 -20 161 -60 187 -97 44 -59 41 -172 -6
-233 -77 -102 -329 -128 -459 -47 -41 25 -77 88 -77 135 l0 36 114 0 c110 0
114 -1 130 -25 20 -30 73 -35 83 -9 9 25 -17 39 -115 63 -102 25 -167 62 -194
111 -40 72 -4 199 68 247 78 51 229 68 331 38z m-4437 -321 l0 -315 -132 3
-133 3 4 310 c2 171 4 312 6 315 2 3 60 4 129 2 l126 -3 0 -315z m1578 313 c9
-6 12 -61 12 -218 l0 -209 98 0 c53 0 103 -4 110 -9 9 -5 12 -31 10 -92 l-3
-84 -30 -6 c-16 -4 -119 -7 -227 -8 -185 -1 -198 0 -208 18 -13 26 -14 560 0
596 l10 27 108 -4 c59 -2 113 -7 120 -11z m1260 4 c1 -1 1 -40 0 -88 l-3 -88
-107 -3 c-99 -2 -108 -4 -108 -22 0 -18 9 -20 103 -22 l102 -3 3 -75 c1 -41
-1 -80 -6 -87 -5 -7 -46 -15 -104 -19 l-96 -7 5 -93 c4 -68 2 -98 -7 -109 -10
-12 -36 -15 -126 -15 -114 0 -115 0 -124 26 -6 16 -9 141 -8 313 l3 286 100 6
c75 5 348 4 373 0z m284 -9 c9 -9 12 -63 9 -217 l-3 -204 108 -3 c105 -3 108
-4 114 -27 4 -17 28 44 85 215 l80 239 130 8 c207 12 175 47 283 -299 51 -162
92 -303 90 -312 -3 -15 -19 -17 -122 -17 -96 0 -120 3 -126 15 -37 80 -30 75
-105 75 l-69 0 -11 -35 c-5 -19 -13 -40 -18 -47 -6 -9 -93 -12 -343 -12 l-335
-1 -9 24 c-10 28 -6 589 5 606 10 17 220 9 237 -8z m2091 -1 c15 -12 17 -46
17 -306 0 -238 -3 -295 -14 -304 -9 -8 -52 -11 -127 -9 l-114 3 -5 105 -5 105
-30 0 -30 0 -3 -98 c-3 -94 -4 -98 -28 -107 -14 -6 -68 -10 -119 -10 -135 0
-128 -21 -118 337 l8 288 111 3 c145 3 147 2 138 -114 l-7 -84 42 0 41 0 0 89
c0 130 -6 123 120 119 72 -2 112 -8 123 -17z m-4639 -15 c52 -26 76 -68 76
-134 0 -61 -18 -101 -57 -130 l-27 -19 22 -12 c35 -19 52 -64 67 -183 12 -89
12 -113 3 -120 -7 -4 -61 -8 -121 -8 -125 0 -121 -3 -133 116 -7 68 -22 94
-55 94 -17 0 -19 -8 -19 -99 0 -81 -3 -100 -16 -105 -9 -3 -65 -6 -125 -6
l-109 0 0 316 0 315 228 -3 c200 -3 232 -5 266 -22z m1746 -50 c0 -111 5 -106
-121 -106 l-109 0 0 -25 c0 -24 1 -24 102 -27 l103 -3 0 -75 0 -75 -102 -9
c-94 -7 -103 -10 -103 -29 0 -19 4 -20 100 -14 55 3 107 4 115 1 12 -5 15 -26
15 -94 l0 -88 -229 -7 c-126 -4 -234 -4 -240 -1 -8 5 -11 104 -11 317 l0 309
240 0 240 0 0 -74z m1428 -908 l-3 -193 -27 -3 c-16 -2 -28 2 -28 8 0 7 -6 8
-19 0 -36 -18 -78 -12 -100 16 -42 54 -39 181 6 235 23 27 31 31 65 26 l38 -5
0 54 0 54 35 0 35 0 -2 -192z m-3080 94 c13 -41 28 -70 32 -65 4 4 17 38 30
76 20 62 24 67 50 67 16 0 32 -4 35 -10 3 -5 -13 -54 -36 -107 -33 -75 -44
-115 -48 -173 l-6 -75 -32 -3 -33 -3 0 69 c0 60 -6 83 -45 173 -25 57 -43 109
-40 117 3 8 17 12 37 10 30 -3 33 -7 56 -76z m1218 18 l22 -55 25 58 c22 48
30 57 52 57 39 0 40 -21 1 -98 l-36 -71 41 -91 c44 -98 43 -114 -6 -108 -24 3
-31 11 -49 60 -12 31 -24 60 -28 63 -3 3 -14 -18 -23 -47 -10 -29 -22 -59 -28
-65 -13 -17 -67 -17 -67 0 0 8 16 51 36 96 l36 83 -33 75 c-28 63 -34 72 -41
54 -5 -16 -16 -21 -43 -21 l-35 0 0 -151 0 -150 -32 3 -33 3 -3 148 -3 147
-34 0 c-33 0 -35 2 -35 35 l0 36 147 -3 147 -3 22 -55z m566 8 c2 -26 8 -34
26 -36 32 -5 28 -55 -5 -60 -21 -3 -23 -9 -23 -67 0 -79 6 -95 35 -95 15 0 26
-8 30 -21 9 -27 -8 -39 -56 -39 -57 0 -72 25 -77 128 -3 59 -9 90 -18 95 -19
11 -18 57 1 57 10 0 15 10 15 29 0 30 10 39 47 40 17 1 22 -5 25 -31z m-1453
-44 c68 -48 68 -210 0 -258 -13 -9 -42 -16 -64 -16 -65 0 -105 55 -105 146 0
88 42 144 110 144 20 0 46 -7 59 -16z m471 -11 c0 -34 -14 -58 -28 -49 -23 14
-42 -37 -42 -110 0 -91 -5 -104 -41 -104 l-29 0 0 140 0 140 30 0 c17 0 30 -5
30 -12 0 -8 6 -6 17 5 10 9 28 17 40 17 18 0 23 -5 23 -27z m828 7 c26 -25 29
-39 36 -163 4 -80 2 -99 -10 -104 -8 -3 -22 2 -32 10 -15 13 -20 14 -36 1 -31
-22 -82 -18 -100 8 -16 23 -21 83 -10 113 8 20 56 45 89 45 26 0 32 14 16 39
-6 10 -20 12 -45 8 -29 -5 -38 -2 -46 13 -14 26 -13 29 13 40 41 16 102 11
125 -10z m472 5 c27 -14 28 -18 18 -40 -12 -28 -19 -30 -35 -14 -15 15 -58 7
-58 -10 0 -8 21 -26 47 -39 103 -53 77 -172 -39 -172 -29 0 -50 7 -68 23 l-27
22 21 19 c17 15 24 17 33 8 7 -7 25 -12 40 -12 43 0 37 35 -10 59 -51 26 -66
46 -66 88 0 68 76 103 144 68z m237 0 c27 -19 47 -109 38 -168 -14 -85 -48
-116 -110 -105 -24 5 -25 3 -25 -48 l0 -54 -35 0 -35 0 0 191 0 192 40 -6 c22
-3 43 -1 46 4 8 14 57 11 81 -6z m222 1 c34 -18 51 -54 51 -111 l0 -45 -60 0
c-65 0 -85 -15 -59 -46 12 -14 36 -15 77 -3 8 2 19 -4 25 -14 26 -40 -78 -77
-134 -47 -66 36 -66 217 0 267 22 17 66 16 100 -1z m251 -14 c28 -29 50 -108
35 -131 -3 -6 -33 -11 -65 -11 -64 0 -77 -9 -60 -40 12 -22 40 -26 69 -10 14
7 23 5 34 -8 44 -49 -91 -88 -142 -41 -12 11 -26 32 -32 46 -13 36 -11 119 5
157 29 70 105 88 156 38z m-2320 -92 c0 -84 3 -110 13 -110 29 0 37 25 37 122
l0 98 35 0 36 0 -3 -137 c-3 -137 -3 -138 -27 -141 -13 -2 -27 2 -31 8 -6 9
-13 9 -28 1 -30 -16 -63 -14 -84 6 -16 14 -18 33 -18 140 l0 123 35 0 35 0 0
-110z"/>
<path d="M7390 5509 c-12 -44 -22 -93 -23 -107 -2 -26 0 -27 46 -25 27 1 51 4
54 6 6 7 -39 207 -48 207 -4 0 -17 -36 -29 -81z"/>
<path d="M4085 5589 c-4 -6 -4 -31 0 -56 6 -44 7 -45 37 -39 17 3 37 11 45 17
20 17 16 67 -6 79 -26 13 -68 13 -76 -1z"/>
<path d="M7379 4784 c-17 -21 -18 -129 -1 -146 9 -9 17 -10 30 -2 12 8 18 28
20 73 4 80 -18 113 -49 75z"/>
<path d="M4666 4778 c-31 -44 -14 -148 24 -148 36 0 54 88 27 139 -17 33 -32
36 -51 9z"/>
<path d="M5967 4693 c-4 -3 -7 -19 -7 -35 0 -21 5 -28 19 -28 20 0 31 18 31
51 0 19 -29 27 -43 12z"/>
<path d="M6671 4786 c-7 -9 -11 -41 -9 -83 3 -65 4 -68 28 -68 21 0 26 6 33
42 9 49 -7 123 -27 123 -8 0 -19 -6 -25 -14z"/>
<path d="M6906 4785 c-13 -34 -6 -45 25 -45 27 0 30 3 27 28 -4 31 -41 44 -52
17z"/>
<path d="M7142 4788 c-7 -7 -12 -20 -12 -30 0 -14 8 -18 35 -18 37 0 42 9 25
41 -12 22 -30 25 -48 7z"/>
</g>
</svg>
